<svg xmlns="http://www.w3.org/2000/svg" version="1.1" width="512px" height="512px"
     style="shape-rendering:geometricPrecision; text-rendering:geometricPrecision; image-rendering:optimizeQuality; fill-rule:evenodd; clip-rule:evenodd"
     xmlns:xlink="http://www.w3.org/1999/xlink">
    <g>
        <path style="opacity:0.97" fill="#008b8b"
              d="M 302.5,-0.5 C 309.833,-0.5 317.167,-0.5 324.5,-0.5C 345.044,4.87598 358.21,17.876 364,38.5C 367.205,54.2295 369.705,70.0628 371.5,86C 370.817,105.37 361.817,119.37 344.5,128C 335.756,131.193 326.756,132.193 317.5,131C 299.91,127.06 282.41,122.894 265,118.5C 254.368,157.023 244.035,195.69 234,234.5C 227.405,243.766 219.738,244.766 211,237.5C 208.626,233.106 207.959,228.44 209,223.5C 219.868,180.359 231.202,137.359 243,94.5C 245.694,90.3237 249.527,88.3237 254.5,88.5C 278.061,94.3069 301.728,99.6403 325.5,104.5C 337.5,103.833 343.833,97.5 344.5,85.5C 342.432,71.0922 339.932,56.7589 337,42.5C 332.74,32.2422 325.074,26.5755 314,25.5C 287.193,29.1218 260.359,32.6218 233.5,36C 216.464,39.928 202.631,48.7613 192,62.5C 152.994,118.487 116.994,176.487 84,236.5C 63.6418,274.879 46.3084,314.546 32,355.5C 26.2557,368.52 24.9223,381.853 28,395.5C 32.561,405.727 40.061,412.894 50.5,417C 72.4838,422.996 94.4838,428.996 116.5,435C 138.241,443.025 159.574,452.025 180.5,462C 279.589,499.457 374.589,491.124 465.5,437C 478.687,435.521 484.521,441.354 483,454.5C 482.333,455.833 481.667,457.167 481,458.5C 433.391,488.647 381.558,506.314 325.5,511.5C 308.5,511.5 291.5,511.5 274.5,511.5C 239.61,508.113 205.61,500.28 172.5,488C 152.282,479.058 131.949,470.391 111.5,462C 88.6063,455.194 65.6063,448.86 42.5,443C 19.7179,434.066 5.38452,417.899 -0.5,394.5C -0.5,386.5 -0.5,378.5 -0.5,370.5C 13.8191,322.501 32.6524,276.168 56,231.5C 91.241,165.986 130.241,102.986 173,42.5C 188.55,24.474 208.05,13.3074 231.5,9C 255.354,6.14908 279.021,2.98242 302.5,-0.5 Z"/>
    </g>
    <g>
        <path style="opacity:0.969" fill="#008b8b"
              d="M 511.5,247.5 C 511.5,251.167 511.5,254.833 511.5,258.5C 509.203,262.287 505.869,264.787 501.5,266C 467.981,266.72 439.314,278.72 415.5,302C 410.661,304.166 405.994,303.833 401.5,301C 372.467,275.158 338.467,262.824 299.5,264C 275.729,267.221 255.062,276.888 237.5,293C 219.948,309.206 205.448,327.706 194,348.5C 187.267,355.618 179.933,356.285 172,350.5C 167.875,345.021 167.541,339.354 171,333.5C 187.854,303.311 210.354,278.144 238.5,258C 276.679,234.521 317.013,230.187 359.5,245C 377.015,251.756 393.348,260.589 408.5,271.5C 435.988,249.726 467.321,239.226 502.5,240C 506.3,241.642 509.3,244.142 511.5,247.5 Z"/>
    </g>
    <g>
        <path style="opacity:0.965" fill="#008b8b"
              d="M 423.5,378.5 C 438.409,378.318 443.575,385.318 439,399.5C 405.152,434.34 363.985,448.507 315.5,442C 302.405,440.226 289.738,436.893 277.5,432C 271.048,426.512 269.881,420.012 274,412.5C 278.228,407.913 283.394,406.413 289.5,408C 340.59,425.887 385.257,416.053 423.5,378.5 Z"/>
    </g>
</svg>
