<svg xmlns="http://www.w3.org/2000/svg" version="1.1" width="616px" height="82px"
     style="shape-rendering:geometricPrecision; text-rendering:geometricPrecision; image-rendering:optimizeQuality; fill-rule:evenodd; clip-rule:evenodd"
     xmlns:xlink="http://www.w3.org/1999/xlink">
    <g>
        <path style="opacity:1" fill="#2e2e2e"
              d="M 14.5,36.5 C 14.1706,39.2282 14.8372,41.5615 16.5,43.5C 18.658,50.6927 23.3247,53.6927 30.5,52.5C 31.6386,57.5393 29.6386,60.8726 24.5,62.5C 17.5239,58.2302 13.8572,51.8968 13.5,43.5C 13.631,42.7611 13.4643,42.0944 13,41.5C 11.8118,42.5634 11.3118,43.8967 11.5,45.5C 11.218,52.5351 8.71801,58.5351 4,63.5C 3.13008,62.8921 2.63008,62.0588 2.5,61C 6.75927,46.0407 9.59261,30.8741 11,15.5C 9.87099,17.1412 8.37099,18.1412 6.5,18.5C 5.50838,18.6716 4.84171,18.3382 4.5,17.5C 6.86631,12.6258 10.1996,8.45913 14.5,5C 24.4232,2.06838 29.4232,5.90171 29.5,16.5C 29.4709,22.7238 27.1375,27.8904 22.5,32C 20.2852,33.0438 17.9519,33.7105 15.5,34C 14.7476,34.6708 14.4142,35.5041 14.5,36.5 Z M 21.5,22.5 C 20.0937,22.9731 19.427,23.9731 19.5,25.5C 17.8712,26.6253 16.3712,27.9586 15,29.5C 15.4527,23.4271 15.7861,17.4271 16,11.5C 19.9835,8.24908 22.4835,9.08242 23.5,14C 23.1359,16.9212 22.4692,19.7545 21.5,22.5 Z"/>
    </g>
    <g>
        <path style="opacity:1" fill="#262626"
              d="M 155.5,5.5 C 160.33,5.49991 162.663,7.99991 162.5,13C 160.708,25.7938 159.208,38.6272 158,51.5C 157.61,56.5334 155.444,60.5334 151.5,63.5C 150.054,62.8291 149.388,61.6624 149.5,60C 150.702,41.734 152.702,23.5673 155.5,5.5 Z"/>
    </g>
    <g>
        <path style="opacity:0.475" fill="#a6a6a6"
              d="M 224.5,5.5 C 223.391,5.55688 222.391,5.89022 221.5,6.5C 222.053,4.44818 223.053,4.11484 224.5,5.5 Z"/>
    </g>
    <g>
        <path style="opacity:1" fill="#2a2a2a"
              d="M 224.5,5.5 C 226.697,8.56287 227.03,11.8962 225.5,15.5C 224.378,17.2884 224.211,19.2884 225,21.5C 226.699,20.5939 228.533,20.2606 230.5,20.5C 232.273,21.3143 232.773,22.6476 232,24.5C 228.973,27.527 225.973,30.527 223,33.5C 222.285,38.3995 221.452,43.2329 220.5,48C 221.12,50.4728 221.786,52.9728 222.5,55.5C 224.529,54.1565 226.529,52.8231 228.5,51.5C 229.906,51.0269 230.573,50.0269 230.5,48.5C 231.475,46.2048 232.808,44.2048 234.5,42.5C 235.404,43.209 235.737,44.209 235.5,45.5C 233.945,53.5387 229.445,58.8721 222,61.5C 219.849,61.3569 218.182,60.3569 217,58.5C 214.51,51.2938 214.01,43.9604 215.5,36.5C 215.167,34.1667 214.167,33.8333 212.5,35.5C 208.968,34.8417 207.968,33.0083 209.5,30C 211.615,29.4427 213.615,28.6094 215.5,27.5C 217.349,20.4367 219.349,13.4367 221.5,6.5C 222.391,5.89022 223.391,5.55688 224.5,5.5 Z"/>
    </g>
    <g>
        <path style="opacity:1" fill="#2d2d2d"
              d="M 405.5,38.5 C 406.117,38.3893 406.617,38.056 407,37.5C 407.49,38.7932 407.657,40.1266 407.5,41.5C 407.039,48.9209 404.039,55.0876 398.5,60C 392.069,63.037 387.569,61.2037 385,54.5C 379.745,39.6737 380.579,25.3403 387.5,11.5C 388.906,11.0269 389.573,10.0269 389.5,8.5C 391.902,4.92155 395.235,3.75488 399.5,5C 405.797,6.13034 408.13,9.63034 406.5,15.5C 403.422,14.7976 400.422,13.7976 397.5,12.5C 392.874,13.7139 390.041,16.7139 389,21.5C 386.229,30.0837 385.895,38.7504 388,47.5C 389.334,51.1044 391.834,52.271 395.5,51C 399.807,47.5353 403.141,43.3687 405.5,38.5 Z"/>
    </g>
    <g>
        <path style="opacity:1" fill="#202020"
              d="M 508.5,16.5 C 506.5,16.5 504.5,16.5 502.5,16.5C 502.5,14.5 502.5,12.5 502.5,10.5C 503.336,5.03822 505.503,4.03822 509,7.5C 509.805,10.6965 509.638,13.6965 508.5,16.5 Z"/>
    </g>
    <g>
        <path style="opacity:0.227" fill="#c5c5c5"
              d="M 538.5,5.5 C 537.391,5.55688 536.391,5.89022 535.5,6.5C 536.053,4.44818 537.053,4.11484 538.5,5.5 Z"/>
    </g>
    <g>
        <path style="opacity:1" fill="#2b2b2b"
              d="M 538.5,5.5 C 539.117,5.61071 539.617,5.94404 540,6.5C 540.694,10.554 540.527,14.554 539.5,18.5C 538.427,19.2506 538.26,20.2506 539,21.5C 540.699,20.5939 542.533,20.2606 544.5,20.5C 546.377,21.6591 546.877,23.3258 546,25.5C 542.254,27.9129 539.254,30.9129 537,34.5C 535.695,41.1257 535.362,47.7924 536,54.5C 537.073,55.2797 538.24,55.113 539.5,54C 543.213,50.0374 546.546,45.8707 549.5,41.5C 550.338,41.8417 550.672,42.5084 550.5,43.5C 549.459,50.0832 546.459,55.5832 541.5,60C 537.031,62.6235 533.531,61.7901 531,57.5C 528.681,50.9531 528.181,44.2865 529.5,37.5C 529.462,34.8129 528.462,34.1463 526.5,35.5C 524.5,34.8333 523.167,33.5 522.5,31.5C 524.793,29.9485 527.293,28.6151 530,27.5C 531.68,20.4459 533.513,13.4459 535.5,6.5C 536.391,5.89022 537.391,5.55688 538.5,5.5 Z"/>
    </g>
    <g>
        <path style="opacity:1" fill="#252525"
              d="M 603.5,5.5 C 608.33,5.49991 610.663,7.99991 610.5,13C 608.708,25.7938 607.208,38.6272 606,51.5C 605.61,56.5334 603.444,60.5334 599.5,63.5C 598.054,62.8291 597.388,61.6624 597.5,60C 598.811,41.7449 600.811,23.5782 603.5,5.5 Z"/>
    </g>
    <g>
        <path style="opacity:1" fill="#282828"
              d="M 252.5,17.5 C 251.532,15.3926 251.198,13.0593 251.5,10.5C 251.834,7.83222 253.167,5.83222 255.5,4.5C 259.155,8.26374 259.821,12.4304 257.5,17C 255.866,17.4935 254.199,17.6602 252.5,17.5 Z"/>
    </g>
    <g>
        <path style="opacity:0.369" fill="#a7a7a7"
              d="M 389.5,8.5 C 389.573,10.0269 388.906,11.0269 387.5,11.5C 387.427,9.97306 388.094,8.97306 389.5,8.5 Z"/>
    </g>
    <g>
        <path style="opacity:1" fill="#303030"
              d="M 316.5,16.5 C 316.427,18.0269 317.094,19.0269 318.5,19.5C 317.601,24.4513 318.935,25.4513 322.5,22.5C 324.258,23.1279 325.758,24.1279 327,25.5C 327.667,28.8333 327.667,32.1667 327,35.5C 325.106,41.5746 323.606,47.7413 322.5,54C 322.836,55.0299 323.503,55.5299 324.5,55.5C 327.167,54.8333 328.833,53.1667 329.5,50.5C 330.398,48.0948 331.898,46.0948 334,44.5C 334.333,44.8333 334.667,45.1667 335,45.5C 334.581,48.4551 333.914,51.4551 333,54.5C 321.582,66.8653 316.582,64.532 318,47.5C 319.377,40.7411 320.71,34.0744 322,27.5C 319.597,29.305 317.93,31.6384 317,34.5C 314.424,43.8969 311.257,53.0636 307.5,62C 305.287,62.4562 304.287,61.4562 304.5,59C 308.289,47.3831 310.789,35.5498 312,23.5C 310.114,26.242 307.614,27.9087 304.5,28.5C 305.265,23.141 307.932,18.9744 312.5,16C 313.928,15.4209 315.262,15.5876 316.5,16.5 Z"/>
    </g>
    <g>
        <path style="opacity:0.976" fill="#6c6c6c"
              d="M 502.5,10.5 C 502.5,12.5 502.5,14.5 502.5,16.5C 504.5,16.5 506.5,16.5 508.5,16.5C 506.212,17.0735 504.045,18.0735 502,19.5C 501.195,16.3035 501.362,13.3035 502.5,10.5 Z"/>
    </g>
    <g>
        <path style="opacity:0.592" fill="#8a8a8a"
              d="M 251.5,10.5 C 251.198,13.0593 251.532,15.3926 252.5,17.5C 252.44,18.0431 252.107,18.3764 251.5,18.5C 250.2,15.6908 250.2,13.0241 251.5,10.5 Z"/>
    </g>
    <g>
        <path style="opacity:0.325" fill="#b8b8b8"
              d="M 4.5,17.5 C 4.84171,18.3382 5.50838,18.6716 6.5,18.5C 5.6136,19.7759 4.6136,19.7759 3.5,18.5C 3.62358,17.8933 3.95691,17.56 4.5,17.5 Z"/>
    </g>
    <g>
        <path style="opacity:0.365" fill="#a7a7a7"
              d="M 316.5,16.5 C 317.906,16.9731 318.573,17.9731 318.5,19.5C 317.094,19.0269 316.427,18.0269 316.5,16.5 Z"/>
    </g>
    <g>
        <path style="opacity:1" fill="#2e2e2e"
              d="M 176.5,43.5 C 175.192,47.0187 175.192,50.6853 176.5,54.5C 177.107,54.3764 177.44,54.0431 177.5,53.5C 183.044,48.0517 186.211,41.385 187,33.5C 188.608,29.9439 190.441,26.6106 192.5,23.5C 193.708,22.7659 195.041,22.4326 196.5,22.5C 198.575,26.164 197.742,29.4974 194,32.5C 190.567,39.5425 189.4,46.8758 190.5,54.5C 193.13,53.1963 195.463,51.5296 197.5,49.5C 198.396,48.4937 199.062,48.4937 199.5,49.5C 198.541,53.9173 196.208,57.4173 192.5,60C 187.841,61.6514 185.174,60.1514 184.5,55.5C 183.699,53.2071 183.032,53.5404 182.5,56.5C 179.773,62.0619 176.273,62.7286 172,58.5C 169.835,44.8367 172.002,31.8367 178.5,19.5C 179.689,18.5713 181.022,18.238 182.5,18.5C 180.971,26.948 178.971,35.2814 176.5,43.5 Z"/>
    </g>
    <g>
        <path style="opacity:0.741" fill="#8d8d8d"
              d="M 225.5,15.5 C 225.5,16.8333 225.5,18.1667 225.5,19.5C 227.415,19.2155 229.081,19.5489 230.5,20.5C 228.533,20.2606 226.699,20.5939 225,21.5C 224.211,19.2884 224.378,17.2884 225.5,15.5 Z"/>
    </g>
    <g>
        <path style="opacity:0.796" fill="#898989"
              d="M 539.5,18.5 C 541.167,19.1667 542.833,19.8333 544.5,20.5C 542.533,20.2606 540.699,20.5939 539,21.5C 538.26,20.2506 538.427,19.2506 539.5,18.5 Z"/>
    </g>
    <g>
        <path style="opacity:1" fill="#2d2d2d"
              d="M 51.5,41.5 C 47.9878,40.9455 44.9878,41.6122 42.5,43.5C 42.3636,55.0234 47.6969,58.6901 58.5,54.5C 59.8333,54.5 60.5,55.1667 60.5,56.5C 57.6388,60.5619 53.6388,62.5619 48.5,62.5C 42.8599,61.5747 39.6932,58.2414 39,52.5C 37.5498,44.3237 38.8831,36.657 43,29.5C 43.7083,28.6195 44.5416,27.9528 45.5,27.5C 47.1667,26.5 48.5,25.1667 49.5,23.5C 54.5428,17.9094 59.0428,18.2427 63,24.5C 64.9301,34.0694 61.0967,39.736 51.5,41.5 Z M 48.5,37.5 C 47.209,37.7373 46.209,37.404 45.5,36.5C 48.3949,31.4065 52.2282,27.0731 57,23.5C 58.6728,26.2386 58.3394,28.9053 56,31.5C 53.9135,34.0939 51.4135,36.0939 48.5,37.5 Z"/>
    </g>
    <g>
        <path style="opacity:1" fill="#313131"
              d="M 99.5,28.5 C 101.598,27.0857 102.598,27.7524 102.5,30.5C 101.662,30.8417 101.328,31.5084 101.5,32.5C 97.045,41.3644 93.8784,50.6978 92,60.5C 88.8093,61.7039 86.6426,60.5372 85.5,57C 86.1215,45.7819 83.7881,35.1152 78.5,25C 71.885,23.369 71.885,21.5357 78.5,19.5C 80.7277,20.2186 82.561,21.552 84,23.5C 87.2205,30.4956 89.2205,37.8289 90,45.5C 92.6874,39.4479 95.8541,33.7812 99.5,28.5 Z"/>
    </g>
    <g>
        <path style="opacity:1" fill="#303030"
              d="M 446.5,42.5 C 447.434,43.5676 447.768,44.901 447.5,46.5C 446.183,52.6324 443.183,57.7991 438.5,62C 433.906,63.6508 431.24,62.1508 430.5,57.5C 429.833,54.8333 429.167,54.8333 428.5,57.5C 423.994,63.1704 420.494,62.5038 418,55.5C 416.487,45.9452 417.987,36.9452 422.5,28.5C 423.906,28.0269 424.573,27.0269 424.5,25.5C 427.723,21.2129 431.556,20.5463 436,23.5C 437.026,20.3072 439.192,18.9738 442.5,19.5C 442.421,20.9305 442.754,22.2638 443.5,23.5C 436.303,32.9532 433.136,43.6199 434,55.5C 434.667,56.1667 435.333,56.8333 436,57.5C 440.499,53.1732 443.999,48.1732 446.5,42.5 Z M 432.5,25.5 C 433.11,26.391 433.443,27.391 433.5,28.5C 431.384,33.6254 429.884,38.9587 429,44.5C 427.521,47.8275 425.355,50.4942 422.5,52.5C 421.532,50.3926 421.198,48.0593 421.5,45.5C 422.715,39.9835 424.548,34.6502 427,29.5C 428.432,27.5612 430.265,26.2279 432.5,25.5 Z"/>
    </g>
    <g>
        <path style="opacity:1" fill="#323232"
              d="M 586.5,42.5 C 587.434,43.5676 587.768,44.901 587.5,46.5C 586.183,52.6324 583.183,57.7991 578.5,62C 573.906,63.6508 571.24,62.1508 570.5,57.5C 569.833,54.8333 569.167,54.8333 568.5,57.5C 565.788,62.304 562.622,62.6374 559,58.5C 555.629,45.3485 558.129,33.5152 566.5,23C 569.865,20.8426 573.032,21.0092 576,23.5C 577.026,20.3072 579.192,18.9738 582.5,19.5C 582.421,20.9305 582.754,22.2638 583.5,23.5C 576.303,32.9532 573.136,43.6199 574,55.5C 574.667,56.1667 575.333,56.8333 576,57.5C 580.499,53.1732 583.999,48.1732 586.5,42.5 Z M 572.5,25.5 C 573.11,26.391 573.443,27.391 573.5,28.5C 571.384,33.6254 569.884,38.9587 569,44.5C 567.541,47.7564 565.374,50.4231 562.5,52.5C 561.596,44.4359 563.096,36.7692 567,29.5C 568.432,27.5612 570.265,26.2279 572.5,25.5 Z"/>
    </g>
    <g>
        <path style="opacity:1" fill="#464646"
              d="M 102.5,35.5 C 103.434,34.4324 103.768,33.099 103.5,31.5C 103.5,30.8333 103.167,30.5 102.5,30.5C 102.598,27.7524 101.598,27.0857 99.5,28.5C 100.919,25.8996 102.585,23.3996 104.5,21C 105.784,20.3162 106.951,20.4829 108,21.5C 107.598,27.3316 106.264,32.9983 104,38.5C 102.961,37.7562 102.461,36.7562 102.5,35.5 Z"/>
    </g>
    <g>
        <path style="opacity:0.239" fill="#b0b0b0"
              d="M 132.5,21.5 C 134.179,21.2852 135.179,21.9519 135.5,23.5C 134.29,23.0679 133.29,22.4013 132.5,21.5 Z"/>
    </g>
    <g>
        <path style="opacity:1" fill="#323232"
              d="M 132.5,21.5 C 133.29,22.4013 134.29,23.0679 135.5,23.5C 137.173,24.343 138.34,25.6763 139,27.5C 139.989,30.4557 140.822,33.4557 141.5,36.5C 140.004,42.1618 138.504,47.8285 137,53.5C 133.721,60.8024 128.221,63.6357 120.5,62C 118.106,60.0478 116.606,57.5478 116,54.5C 114.989,47.0004 115.655,39.6671 118,32.5C 118.697,30.4156 119.864,28.7489 121.5,27.5C 122.833,26.8333 123.833,25.8333 124.5,24.5C 126.684,22.4152 129.351,21.4152 132.5,21.5 Z M 132.5,46.5 C 130.521,47.8121 128.855,49.4788 127.5,51.5C 128.7,52.2916 130.033,52.2916 131.5,51.5C 129.057,55.3199 125.723,56.6532 121.5,55.5C 118.709,47.6814 119.209,40.0148 123,32.5C 129.972,23.0409 134.138,24.3742 135.5,36.5C 135.298,40.1021 134.298,43.4354 132.5,46.5 Z"/>
    </g>
    <g>
        <path style="opacity:0.49" fill="#9e9e9e"
              d="M 196.5,22.5 C 195.041,22.4326 193.708,22.7659 192.5,23.5C 192.62,22.4138 193.287,21.7472 194.5,21.5C 195.416,21.5427 196.083,21.8761 196.5,22.5 Z"/>
    </g>
    <g>
        <path style="opacity:1" fill="#333333"
              d="M 295.5,27.5 C 296.254,32.4635 296.587,37.4635 296.5,42.5C 295.947,50.4393 292.614,56.9393 286.5,62C 279.753,64.2725 275.253,62.1059 273,55.5C 270.662,44.3734 272.828,34.2067 279.5,25C 286.071,19.5783 291.405,20.4117 295.5,27.5 Z M 285.5,50.5 C 284.624,50.3691 283.957,50.7025 283.5,51.5C 284.614,52.7759 285.614,52.7759 286.5,51.5C 287.167,51.5 287.833,51.5 288.5,51.5C 280.798,59.4131 276.798,57.9131 276.5,47C 275.818,37.6759 279.318,30.5092 287,25.5C 293.219,31.8523 293.886,38.8523 289,46.5C 287.624,47.7051 286.458,49.0384 285.5,50.5 Z"/>
    </g>
    <g>
        <path style="opacity:1" fill="#282828"
              d="M 482.5,26.5 C 482.427,28.0269 483.094,29.0269 484.5,29.5C 489.85,41.6059 486.517,50.7725 474.5,57C 471.854,57.4974 469.187,57.6641 466.5,57.5C 465.646,62.231 464.48,66.8977 463,71.5C 462.065,74.5952 460.231,76.9286 457.5,78.5C 456.549,77.0813 456.216,75.4147 456.5,73.5C 459.165,61.5051 461.832,49.5051 464.5,37.5C 464.03,36.537 463.363,36.537 462.5,37.5C 460.821,37.7148 459.821,37.0481 459.5,35.5C 459.427,33.9731 460.094,32.9731 461.5,32.5C 463.833,30.8333 465.833,28.8333 467.5,26.5C 472.577,21.2566 477.577,21.2566 482.5,26.5 Z M 475.5,28.5 C 477.17,28.7512 478.67,29.4178 480,30.5C 481.111,35.6111 480.111,40.2777 477,44.5C 474.297,47.538 471.297,50.2046 468,52.5C 468.235,45.8337 469.068,39.1671 470.5,32.5C 472.21,31.1128 473.877,29.7794 475.5,28.5 Z"/>
    </g>
    <g>
        <path style="opacity:0.376" fill="#a1a1a1"
              d="M 21.5,22.5 C 21.573,24.0269 20.9063,25.0269 19.5,25.5C 19.427,23.9731 20.0937,22.9731 21.5,22.5 Z"/>
    </g>
    <g>
        <path style="opacity:0.58" fill="#999999"
              d="M 49.5,23.5 C 48.5,25.1667 47.1667,26.5 45.5,27.5C 45.8333,25.1667 47.1667,23.8333 49.5,23.5 Z"/>
    </g>
    <g>
        <path style="opacity:1" fill="#2f2f2f"
              d="M 260.5,52.5 C 262.027,52.573 263.027,51.9063 263.5,50.5C 264.833,50.5 265.5,51.1667 265.5,52.5C 262.346,58.7358 257.346,61.9025 250.5,62C 248.714,61.2155 247.214,60.0488 246,58.5C 244.177,49.4929 244.511,40.4929 247,31.5C 249.671,20.7524 251.505,20.9191 252.5,32C 252.093,37.0839 251.427,42.0839 250.5,47C 251.274,49.405 251.774,51.905 252,54.5C 254.956,55.0292 257.789,54.3626 260.5,52.5 Z"/>
    </g>
    <g>
        <path style="opacity:1" fill="#2e2e2e"
              d="M 514.5,50.5 C 515.833,50.5 516.5,51.1667 516.5,52.5C 513.363,58.729 508.363,61.8957 501.5,62C 499.714,61.2155 498.214,60.0488 497,58.5C 495.424,52.6123 495.091,46.6123 496,40.5C 497.329,34.8519 498.496,29.1853 499.5,23.5C 500.5,23.5 501.5,23.5 502.5,23.5C 502.5,34.1677 502.5,44.8343 502.5,55.5C 506.749,54.3739 510.749,52.7072 514.5,50.5 Z"/>
    </g>
    <g>
        <path style="opacity:0.58" fill="#959595"
              d="M 124.5,24.5 C 123.833,25.8333 122.833,26.8333 121.5,27.5C 121.5,25.5 122.5,24.5 124.5,24.5 Z"/>
    </g>
    <g>
        <path style="opacity:0.314" fill="#ababab"
              d="M 424.5,25.5 C 424.573,27.0269 423.906,28.0269 422.5,28.5C 422.427,26.9731 423.094,25.9731 424.5,25.5 Z"/>
    </g>
    <g>
        <path style="opacity:0.196" fill="#bebebe"
              d="M 432.5,25.5 C 434.552,26.0527 434.885,27.0527 433.5,28.5C 433.443,27.391 433.11,26.391 432.5,25.5 Z"/>
    </g>
    <g>
        <path style="opacity:0.196" fill="#bebebe"
              d="M 572.5,25.5 C 574.552,26.0527 574.885,27.0527 573.5,28.5C 573.443,27.391 573.11,26.391 572.5,25.5 Z"/>
    </g>
    <g>
        <path style="opacity:0.42" fill="#979797"
              d="M 482.5,26.5 C 483.906,26.9731 484.573,27.9731 484.5,29.5C 483.094,29.0269 482.427,28.0269 482.5,26.5 Z"/>
    </g>
    <g>
        <path style="opacity:0.741" fill="#868686"
              d="M 467.5,26.5 C 465.833,28.8333 463.833,30.8333 461.5,32.5C 462.5,29.5 464.5,27.5 467.5,26.5 Z"/>
    </g>
    <g>
        <path style="opacity:0.129" fill="#d1d1d1"
              d="M 102.5,30.5 C 103.167,30.5 103.5,30.8333 103.5,31.5C 103.768,33.099 103.434,34.4324 102.5,35.5C 102.737,34.209 102.404,33.209 101.5,32.5C 101.328,31.5084 101.662,30.8417 102.5,30.5 Z"/>
    </g>
    <g>
        <path style="opacity:0.78" fill="#707070"
              d="M 295.5,27.5 C 296.991,30.1864 297.657,33.1864 297.5,36.5C 297.495,38.6965 297.162,40.6965 296.5,42.5C 296.587,37.4635 296.254,32.4635 295.5,27.5 Z"/>
    </g>
    <g>
        <path style="opacity:0.996" fill="#717171"
              d="M 407.5,41.5 C 407.657,40.1266 407.49,38.7932 407,37.5C 406.617,38.056 406.117,38.3893 405.5,38.5C 406.552,35.395 407.885,32.395 409.5,29.5C 410.114,33.7119 409.447,37.7119 407.5,41.5 Z"/>
    </g>
    <g>
        <path style="opacity:0.014" fill="#d5d5d5"
              d="M 45.5,36.5 C 46.209,37.404 47.209,37.7373 48.5,37.5C 47.2918,38.782 45.9584,38.782 44.5,37.5C 44.6236,36.8933 44.9569,36.56 45.5,36.5 Z"/>
    </g>
    <g>
        <path style="opacity:0.675" fill="#8a8a8a"
              d="M 459.5,35.5 C 459.821,37.0481 460.821,37.7148 462.5,37.5C 461.432,38.4345 460.099,38.7678 458.5,38.5C 458.263,37.209 458.596,36.209 459.5,35.5 Z"/>
    </g>
    <g>
        <path style="opacity:0.918" fill="#818181"
              d="M 14.5,36.5 C 15.6118,38.5994 16.2785,40.9327 16.5,43.5C 14.8372,41.5615 14.1706,39.2282 14.5,36.5 Z"/>
    </g>
    <g>
        <path style="opacity:0.925" fill="#757575"
              d="M 235.5,45.5 C 235.737,44.209 235.404,43.209 234.5,42.5C 236.055,39.0604 237.888,35.7271 240,32.5C 239.637,37.226 238.137,41.5594 235.5,45.5 Z"/>
    </g>
    <g>
        <path style="opacity:0.702" fill="#777777"
              d="M 550.5,43.5 C 550.672,42.5084 550.338,41.8417 549.5,41.5C 550.462,38.2432 551.962,35.2432 554,32.5C 553.975,36.5453 552.808,40.2119 550.5,43.5 Z"/>
    </g>
    <g>
        <path style="opacity:0.494" fill="#919191"
              d="M 51.5,41.5 C 48.6104,42.2448 45.6104,42.9115 42.5,43.5C 44.9878,41.6122 47.9878,40.9455 51.5,41.5 Z"/>
    </g>
    <g>
        <path style="opacity:0.631" fill="#868686"
              d="M 447.5,46.5 C 447.768,44.901 447.434,43.5676 446.5,42.5C 446.369,41.6236 446.702,40.9569 447.5,40.5C 448.793,42.6365 448.793,44.6365 447.5,46.5 Z"/>
    </g>
    <g>
        <path style="opacity:0.631" fill="#898989"
              d="M 587.5,46.5 C 587.768,44.901 587.434,43.5676 586.5,42.5C 586.369,41.6236 586.702,40.9569 587.5,40.5C 588.793,42.6365 588.793,44.6365 587.5,46.5 Z"/>
    </g>
    <g>
        <path style="opacity:0.302" fill="#b8b8b8"
              d="M 13.5,43.5 C 12.8333,44.1667 12.1667,44.8333 11.5,45.5C 11.3118,43.8967 11.8118,42.5634 13,41.5C 13.4643,42.0944 13.631,42.7611 13.5,43.5 Z"/>
    </g>
    <g>
        <path style="opacity:0.714" fill="#757575"
              d="M 199.5,49.5 C 199.062,48.4937 198.396,48.4937 197.5,49.5C 198.072,47.7446 198.906,46.0779 200,44.5C 201.77,46.315 201.603,47.9817 199.5,49.5 Z"/>
    </g>
    <g>
        <path style="opacity:0.969" fill="#6b6b6b"
              d="M 132.5,46.5 C 131.955,48.3694 131.955,50.0361 132.5,51.5C 132.167,50.1667 131.833,50.1667 131.5,51.5C 130.033,52.2916 128.7,52.2916 127.5,51.5C 128.855,49.4788 130.521,47.8121 132.5,46.5 Z"/>
    </g>
    <g>
        <path style="opacity:0.69" fill="#939393"
              d="M 230.5,48.5 C 230.573,50.0269 229.906,51.0269 228.5,51.5C 228.427,49.9731 229.094,48.9731 230.5,48.5 Z"/>
    </g>
    <g>
        <path style="opacity:0.561" fill="#7e7e7e"
              d="M 265.5,52.5 C 265.5,51.1667 264.833,50.5 263.5,50.5C 264.755,48.3592 266.422,47.6926 268.5,48.5C 267.965,50.261 266.965,51.5943 265.5,52.5 Z"/>
    </g>
    <g>
        <path style="opacity:0.471" fill="#767676"
              d="M 421.5,45.5 C 421.198,48.0593 421.532,50.3926 422.5,52.5C 422.44,53.0431 422.107,53.3764 421.5,53.5C 420.2,50.6908 420.2,48.0241 421.5,45.5 Z"/>
    </g>
    <g>
        <path style="opacity:0.949" fill="#696969"
              d="M 516.5,52.5 C 516.5,51.1667 515.833,50.5 514.5,50.5C 515.755,48.3592 517.422,47.6926 519.5,48.5C 518.479,49.9014 517.479,51.2347 516.5,52.5 Z"/>
    </g>
    <g>
        <path style="opacity:0.757" fill="#6d6d6d"
              d="M 60.5,56.5 C 60.5,55.1667 59.8333,54.5 58.5,54.5C 60.6292,50.8349 63.6292,48.6682 67.5,48C 66.0573,51.6056 63.7239,54.4389 60.5,56.5 Z"/>
    </g>
    <g>
        <path style="opacity:0.22" fill="#a2a2a2"
              d="M 176.5,43.5 C 176.187,47.0419 176.521,50.3752 177.5,53.5C 177.44,54.0431 177.107,54.3764 176.5,54.5C 175.192,50.6853 175.192,47.0187 176.5,43.5 Z"/>
    </g>
    <g>
        <path style="opacity:0.737" fill="#898989"
              d="M 263.5,50.5 C 263.027,51.9063 262.027,52.573 260.5,52.5C 260.973,51.0937 261.973,50.427 263.5,50.5 Z"/>
    </g>
    <g>
        <path style="opacity:0.431" fill="#b5b5b5"
              d="M 285.5,50.5 C 285.5,51.1667 285.833,51.5 286.5,51.5C 285.614,52.7759 284.614,52.7759 283.5,51.5C 283.957,50.7025 284.624,50.3691 285.5,50.5 Z"/>
    </g>
    <g>
        <path style="opacity:0.024" fill="#d7d7d7"
              d="M 184.5,55.5 C 183.833,55.8333 183.167,56.1667 182.5,56.5C 183.032,53.5404 183.699,53.2071 184.5,55.5 Z"/>
    </g>
    <g>
        <path style="opacity:0.867" fill="#757575"
              d="M 329.5,50.5 C 328.833,53.1667 327.167,54.8333 324.5,55.5C 325.833,53.5 327.5,51.8333 329.5,50.5 Z"/>
    </g>
    <g>
        <path style="opacity:0.135" fill="#b8b8b8"
              d="M 430.5,57.5 C 429.833,57.5 429.167,57.5 428.5,57.5C 429.167,54.8333 429.833,54.8333 430.5,57.5 Z"/>
    </g>
    <g>
        <path style="opacity:0.135" fill="#bcbcbc"
              d="M 570.5,57.5 C 569.833,57.5 569.167,57.5 568.5,57.5C 569.167,54.8333 569.833,54.8333 570.5,57.5 Z"/>
    </g>
    <g>
        <path style="opacity:0.488" fill="#afafaf"
              d="M 456.5,73.5 C 456.216,75.4147 456.549,77.0813 457.5,78.5C 457.44,79.0431 457.107,79.3764 456.5,79.5C 455.207,77.3635 455.207,75.3635 456.5,73.5 Z"/>
    </g>
</svg>
